<svg xmlns="http://www.w3.org/2000/svg" width="39.679" height="26" viewBox="0 0 39.679 26"><defs><style>.a{fill:#fff;}</style></defs><g transform="translate(-2.5 -18.85)"><path class="a" d="M59.987,22.881,47.833,18.913a.921.921,0,0,0-.668,0L35.01,22.881a1.042,1.042,0,0,0-.71,1V39.838a1.082,1.082,0,0,0,.71,1l12.154,3.968a1.357,1.357,0,0,0,.668,0L59.987,40.8a1.042,1.042,0,0,0,.71-1V23.883A1.082,1.082,0,0,0,59.987,22.881ZM46.454,42.386l-10.066-3.3V25.3L40.4,26.6v7.81a1.044,1.044,0,1,0,2.088,0v-7.1L46.5,28.6V42.386ZM47.5,26.765l-2.84-.919,2-.71A1.037,1.037,0,0,0,47.29,23.8a1.073,1.073,0,0,0-1.337-.627L41.484,24.8l-2.8-.919L47.5,21l8.813,2.882Zm11.11,12.321L54.6,40.381V35.87a1.034,1.034,0,0,0-1.044-1.044,1,1,0,0,0-1,1.044v5.221l-4.01,1.295V28.6l10.066-3.3Z" transform="translate(-18.518)"/><path class="a" d="M10.937,33.6H3.544a1.044,1.044,0,0,0,0,2.088h7.393a1.034,1.034,0,0,0,1.044-1.044A1.09,1.09,0,0,0,10.937,33.6Z" transform="translate(0 -8.589)"/><path class="a" d="M10.937,47.5H3.544a1.044,1.044,0,0,0,0,2.088h7.393a1.034,1.034,0,0,0,1.044-1.044A1.061,1.061,0,0,0,10.937,47.5Z" transform="translate(0 -16.684)"/><path class="a" d="M10.937,61.4H3.544a1.044,1.044,0,0,0,0,2.088h7.393a1.034,1.034,0,0,0,1.044-1.044A1.061,1.061,0,0,0,10.937,61.4Z" transform="translate(0 -24.778)"/></g></svg>