<svg xmlns="http://www.w3.org/2000/svg" width="159.292" height="40.087" viewBox="0 0 159.292 40.087"><defs><style>.a,.b,.c,.d,.e,.f,.g,.h,.i{fill:#fff;}.b,.d,.e,.f,.g,.i{stroke:#fff;}.b,.d,.e,.f,.g{stroke-linecap:round;stroke-linejoin:round;}.b{stroke-width:1.406px;}.c{fill-rule:evenodd;}.d{stroke-width:0.703px;}.e{stroke-width:0.304px;}.f{stroke-width:1.405px;}.g{stroke-width:0.714px;}.h{stroke:rgba(0,0,0,0);}.i{stroke-miterlimit:2.613;stroke-width:2px;}</style></defs><g transform="translate(-983.96 -797.1)"><path class="a" d="M1.942-14.475a.221.221,0,0,1-.11.032.192.192,0,0,1-.118-.035.109.109,0,0,1-.047-.091.162.162,0,0,1,.1-.142,6.122,6.122,0,0,1,.706-.327q.39-.154.8-.284t.8-.229q.394-.1.717-.17t.544-.11a2.261,2.261,0,0,1,.276-.039q.063,0,.063.032,0,.079-.244.142-.7.181-1.329.355a11.49,11.49,0,0,0-1.25.426l.016.016q-.008.694-.032,1.407t-.087,1.431q.315-.142.647-.268t.623-.225q.292-.1.5-.162T4.8-12.8a.6.6,0,0,1,.11-.008q.15,0,.15.063,0,.039-.2.106l-.524.181q-.327.114-.749.276a8.687,8.687,0,0,0-.879.4q-.079.654-.2,1.285a10.428,10.428,0,0,1-.319,1.238q-.079.237-.189.516a2.8,2.8,0,0,1-.276.528,1.633,1.633,0,0,1-.39.414.872.872,0,0,1-.532.166.722.722,0,0,1-.355-.083.692.692,0,0,1-.244-.225,1.048,1.048,0,0,1-.142-.335A1.772,1.772,0,0,1,.018-8.7a2.9,2.9,0,0,1,.071-.639,2.312,2.312,0,0,1,.173-.52,3.389,3.389,0,0,1,.327-.532,4.524,4.524,0,0,1,.465-.532,5.811,5.811,0,0,1,.583-.5,5.138,5.138,0,0,1,.674-.43q.087-.725.118-1.451t.039-1.443q-.134.063-.264.13Zm.126,4.218q.063-.315.114-.631t.091-.647a5.171,5.171,0,0,0-.7.5,4.7,4.7,0,0,0-.639.654,3.538,3.538,0,0,0-.469.761,1.959,1.959,0,0,0-.181.812,1.241,1.241,0,0,0,.142.635.407.407,0,0,0,.347.24.636.636,0,0,0,.477-.225,2.211,2.211,0,0,0,.371-.568,4.3,4.3,0,0,0,.268-.753Q2-9.886,2.068-10.257Z" transform="translate(1081.384 842.493)"/><path class="a" d="M1.942-14.475a.221.221,0,0,1-.11.032.192.192,0,0,1-.118-.035.109.109,0,0,1-.047-.091.162.162,0,0,1,.1-.142,6.122,6.122,0,0,1,.706-.327q.39-.154.8-.284t.8-.229q.394-.1.717-.17t.544-.11a2.261,2.261,0,0,1,.276-.039q.063,0,.063.032,0,.079-.244.142-.7.181-1.329.355a11.49,11.49,0,0,0-1.25.426l.016.016q-.008.694-.032,1.407t-.087,1.431q.315-.142.647-.268t.623-.225q.292-.1.5-.162T4.8-12.8a.6.6,0,0,1,.11-.008q.15,0,.15.063,0,.039-.2.106l-.524.181q-.327.114-.749.276a8.687,8.687,0,0,0-.879.4q-.079.654-.2,1.285a10.428,10.428,0,0,1-.319,1.238q-.079.237-.189.516a2.8,2.8,0,0,1-.276.528,1.633,1.633,0,0,1-.39.414.872.872,0,0,1-.532.166.722.722,0,0,1-.355-.083.692.692,0,0,1-.244-.225,1.048,1.048,0,0,1-.142-.335A1.772,1.772,0,0,1,.018-8.7a2.9,2.9,0,0,1,.071-.639,2.312,2.312,0,0,1,.173-.52,3.389,3.389,0,0,1,.327-.532,4.524,4.524,0,0,1,.465-.532,5.811,5.811,0,0,1,.583-.5,5.138,5.138,0,0,1,.674-.43q.087-.725.118-1.451t.039-1.443q-.134.063-.264.13Zm.126,4.218q.063-.315.114-.631t.091-.647a5.171,5.171,0,0,0-.7.5,4.7,4.7,0,0,0-.639.654,3.538,3.538,0,0,0-.469.761,1.959,1.959,0,0,0-.181.812,1.241,1.241,0,0,0,.142.635.407.407,0,0,0,.347.24.636.636,0,0,0,.477-.225,2.211,2.211,0,0,0,.371-.568,4.3,4.3,0,0,0,.268-.753Q2-9.886,2.068-10.257Z" transform="translate(1081.384 842.493)"/><path class="a" d="M2.362-5.378a.416.416,0,0,1,.229-.087q.047,0,.047.032t-.071.1q-.213.181-.442.347a3.846,3.846,0,0,1-.469.292,2.878,2.878,0,0,1-.481.2,1.55,1.55,0,0,1-.461.075.6.6,0,0,1-.536-.209.943.943,0,0,1-.142-.54,2.432,2.432,0,0,1,.043-.445q.043-.233.1-.445t.114-.382q.059-.17.083-.264A.2.2,0,0,1,.47-6.817a.268.268,0,0,1,.142-.051q.055,0,.055.047a.016.016,0,0,1,0,.012.031.031,0,0,0,0,.02Q.635-6.7.588-6.526t-.1.375q-.051.2-.087.426a2.638,2.638,0,0,0-.035.418.974.974,0,0,0,.091.445.335.335,0,0,0,.327.177,1.278,1.278,0,0,0,.382-.063,3.227,3.227,0,0,0,.41-.162,3.908,3.908,0,0,0,.41-.225Q2.188-5.26,2.362-5.378ZM.572-7.491a.092.092,0,0,1-.079-.1A.4.4,0,0,1,.6-7.854.332.332,0,0,1,.864-7.98a.181.181,0,0,1,.083.035.108.108,0,0,1,.035.091.341.341,0,0,1-.118.264.364.364,0,0,1-.244.106A.11.11,0,0,1,.572-7.491Z" transform="translate(1085.221 838.071)"/><path class="a" d="M2.362-5.378a.416.416,0,0,1,.229-.087q.047,0,.047.032t-.071.1q-.213.181-.442.347a3.846,3.846,0,0,1-.469.292,2.878,2.878,0,0,1-.481.2,1.55,1.55,0,0,1-.461.075.6.6,0,0,1-.536-.209.943.943,0,0,1-.142-.54,2.432,2.432,0,0,1,.043-.445q.043-.233.1-.445t.114-.382q.059-.17.083-.264A.2.2,0,0,1,.47-6.817a.268.268,0,0,1,.142-.051q.055,0,.055.047a.016.016,0,0,1,0,.012.031.031,0,0,0,0,.02Q.635-6.7.588-6.526t-.1.375q-.051.2-.087.426a2.638,2.638,0,0,0-.035.418.974.974,0,0,0,.091.445.335.335,0,0,0,.327.177,1.278,1.278,0,0,0,.382-.063,3.227,3.227,0,0,0,.41-.162,3.908,3.908,0,0,0,.41-.225Q2.188-5.26,2.362-5.378ZM.572-7.491a.092.092,0,0,1-.079-.1A.4.4,0,0,1,.6-7.854.332.332,0,0,1,.864-7.98a.181.181,0,0,1,.083.035.108.108,0,0,1,.035.091.341.341,0,0,1-.118.264.364.364,0,0,1-.244.106A.11.11,0,0,1,.572-7.491Z" transform="translate(1085.221 838.071)"/><path class="a" d="M.586-5.871l.1-.118a.676.676,0,0,1,.087-.087.138.138,0,0,1,.071-.039q.016,0,.016.024a5.616,5.616,0,0,1-.083.97Q.7-4.649.593-4.168q.173-.244.394-.524a6.844,6.844,0,0,1,.453-.52,2.983,2.983,0,0,1,.465-.4.79.79,0,0,1,.438-.158.393.393,0,0,1,.311.13,1.013,1.013,0,0,1,.185.323,2.929,2.929,0,0,1,.118.426,3.083,3.083,0,0,0,.118.43q.047.134.087.256a.968.968,0,0,0,.1.217.56.56,0,0,0,.138.154.333.333,0,0,0,.2.059A1.431,1.431,0,0,0,3.763-3.8a1.166,1.166,0,0,0,.2-.067,4.847,4.847,0,0,0,.56-.284q.189-.118.221-.134l.114-.035a.315.315,0,0,1,.083-.02.023.023,0,0,1,.016.008q0,.016-.039.055-.11.11-.272.244a2.89,2.89,0,0,1-.359.252,2.692,2.692,0,0,1-.41.2,1.148,1.148,0,0,1-.418.083.831.831,0,0,1-.307-.059.734.734,0,0,1-.284-.217A.655.655,0,0,1,2.75-4q-.051-.158-.1-.351t-.095-.394q-.047-.2-.095-.371a1.466,1.466,0,0,0-.1-.276Q2.3-5.5,2.233-5.5A.424.424,0,0,0,2-5.39a2.486,2.486,0,0,0-.3.288q-.162.177-.339.406t-.347.469q-.17.24-.323.477T.42-3.332A.236.236,0,0,1,.3-3.257a.548.548,0,0,1-.185.035q-.095,0-.095-.055a.016.016,0,0,1,0-.012.016.016,0,0,0,0-.012Q.1-3.561.2-3.919t.173-.725q.083-.367.142-.7T.586-5.871Z" transform="translate(1087.62 837.026)"/><path class="a" d="M.586-5.871l.1-.118a.676.676,0,0,1,.087-.087.138.138,0,0,1,.071-.039q.016,0,.016.024a5.616,5.616,0,0,1-.083.97Q.7-4.649.593-4.168q.173-.244.394-.524a6.844,6.844,0,0,1,.453-.52,2.983,2.983,0,0,1,.465-.4.79.79,0,0,1,.438-.158.393.393,0,0,1,.311.13,1.013,1.013,0,0,1,.185.323,2.929,2.929,0,0,1,.118.426,3.083,3.083,0,0,0,.118.43q.047.134.087.256a.968.968,0,0,0,.1.217.56.56,0,0,0,.138.154.333.333,0,0,0,.2.059A1.431,1.431,0,0,0,3.763-3.8a1.166,1.166,0,0,0,.2-.067,4.847,4.847,0,0,0,.56-.284q.189-.118.221-.134l.114-.035a.315.315,0,0,1,.083-.02.023.023,0,0,1,.016.008q0,.016-.039.055-.11.11-.272.244a2.89,2.89,0,0,1-.359.252,2.692,2.692,0,0,1-.41.2,1.148,1.148,0,0,1-.418.083.831.831,0,0,1-.307-.059.734.734,0,0,1-.284-.217A.655.655,0,0,1,2.75-4q-.051-.158-.1-.351t-.095-.394q-.047-.2-.095-.371a1.466,1.466,0,0,0-.1-.276Q2.3-5.5,2.233-5.5A.424.424,0,0,0,2-5.39a2.486,2.486,0,0,0-.3.288q-.162.177-.339.406t-.347.469q-.17.24-.323.477T.42-3.332A.236.236,0,0,1,.3-3.257a.548.548,0,0,1-.185.035q-.095,0-.095-.055a.016.016,0,0,1,0-.012.016.016,0,0,0,0-.012Q.1-3.561.2-3.919t.173-.725q.083-.367.142-.7T.586-5.871Z" transform="translate(1087.62 837.026)"/><path class="a" d="M4.394-9.349a.325.325,0,0,1,.213-.071q.087,0,.087.047a.129.129,0,0,1-.047.079q-.158.15-.371.335a4.772,4.772,0,0,1-.457.351,2.9,2.9,0,0,1-.509.276,1.334,1.334,0,0,1-.516.11A.854.854,0,0,1,2.407-8.3a.758.758,0,0,1-.272-.225,1.019,1.019,0,0,1-.162-.335,1.5,1.5,0,0,1-.055-.414l-.15.118-.233.177a4.338,4.338,0,0,1-.363.244,3.651,3.651,0,0,1-.414.217.95.95,0,0,1-.378.095.334.334,0,0,1-.26-.114.462.462,0,0,1-.1-.319A.966.966,0,0,1,.1-9.242a1.912,1.912,0,0,1,.233-.394,2.924,2.924,0,0,1,.335-.371,2.886,2.886,0,0,1,.394-.311,2.237,2.237,0,0,1,.406-.213,1.03,1.03,0,0,1,.375-.079.5.5,0,0,1,.323.1q.071-.229.142-.485t.134-.5q.063-.244.122-.445t.1-.311q.181-.5.4-1.037a5.592,5.592,0,0,1,.52-.989l.166-.248a1.546,1.546,0,0,1,.193-.237,1,1,0,0,1,.24-.177A.647.647,0,0,1,4.5-15.01a.276.276,0,0,1,.264.134.707.707,0,0,1,.075.347,2.252,2.252,0,0,1-.047.43,4.607,4.607,0,0,1-.122.481q-.075.24-.162.461t-.158.378q-.166.378-.378.777t-.465.788q-.252.39-.536.753a7.367,7.367,0,0,1-.591.67,1.437,1.437,0,0,0-.008.158v.173a1.724,1.724,0,0,0,.051.453.885.885,0,0,0,.134.3.51.51,0,0,0,.193.162.52.52,0,0,0,.221.051.951.951,0,0,0,.375-.087A2.426,2.426,0,0,0,3.735-8.8a3.5,3.5,0,0,0,.363-.28Q4.268-9.231,4.394-9.349ZM2.856-11.9q-.047.158-.1.367t-.11.438q-.055.229-.1.453t-.095.414a6.224,6.224,0,0,0,.442-.587q.213-.319.41-.662t.371-.682q.173-.339.315-.639t.3-.706a7.047,7.047,0,0,0,.248-.785.748.748,0,0,0,.024-.181.435.435,0,0,0-.047-.217.147.147,0,0,0-.134-.083.236.236,0,0,0-.126.047A.765.765,0,0,0,4.1-14.6a1.729,1.729,0,0,0-.134.17q-.063.091-.11.17A9.923,9.923,0,0,0,3.3-13.106Q3.061-12.511,2.856-11.9ZM1.2-9.065q.2-.142.382-.3T1.95-9.7q.016-.1.032-.2t.032-.2a.448.448,0,0,0-.134-.2A.294.294,0,0,0,1.7-10.35a.669.669,0,0,0-.4.17,2.355,2.355,0,0,0-.4.406,3.05,3.05,0,0,0-.311.481.923.923,0,0,0-.126.386q0,.15.126.15a.6.6,0,0,0,.237-.071A2.551,2.551,0,0,0,1.2-9.065Z" transform="translate(1092.28 842.01)"/><path class="a" d="M4.394-9.349a.325.325,0,0,1,.213-.071q.087,0,.087.047a.129.129,0,0,1-.047.079q-.158.15-.371.335a4.772,4.772,0,0,1-.457.351,2.9,2.9,0,0,1-.509.276,1.334,1.334,0,0,1-.516.11A.854.854,0,0,1,2.407-8.3a.758.758,0,0,1-.272-.225,1.019,1.019,0,0,1-.162-.335,1.5,1.5,0,0,1-.055-.414l-.15.118-.233.177a4.338,4.338,0,0,1-.363.244,3.651,3.651,0,0,1-.414.217.95.95,0,0,1-.378.095.334.334,0,0,1-.26-.114.462.462,0,0,1-.1-.319A.966.966,0,0,1,.1-9.242a1.912,1.912,0,0,1,.233-.394,2.924,2.924,0,0,1,.335-.371,2.886,2.886,0,0,1,.394-.311,2.237,2.237,0,0,1,.406-.213,1.03,1.03,0,0,1,.375-.079.5.5,0,0,1,.323.1q.071-.229.142-.485t.134-.5q.063-.244.122-.445t.1-.311q.181-.5.4-1.037a5.592,5.592,0,0,1,.52-.989l.166-.248a1.546,1.546,0,0,1,.193-.237,1,1,0,0,1,.24-.177A.647.647,0,0,1,4.5-15.01a.276.276,0,0,1,.264.134.707.707,0,0,1,.075.347,2.252,2.252,0,0,1-.047.43,4.607,4.607,0,0,1-.122.481q-.075.24-.162.461t-.158.378q-.166.378-.378.777t-.465.788q-.252.39-.536.753a7.367,7.367,0,0,1-.591.67,1.437,1.437,0,0,0-.008.158v.173a1.724,1.724,0,0,0,.051.453.885.885,0,0,0,.134.3.51.51,0,0,0,.193.162.52.52,0,0,0,.221.051.951.951,0,0,0,.375-.087A2.426,2.426,0,0,0,3.735-8.8a3.5,3.5,0,0,0,.363-.28Q4.268-9.231,4.394-9.349ZM2.856-11.9q-.047.158-.1.367t-.11.438q-.055.229-.1.453t-.095.414a6.224,6.224,0,0,0,.442-.587q.213-.319.41-.662t.371-.682q.173-.339.315-.639t.3-.706a7.047,7.047,0,0,0,.248-.785.748.748,0,0,0,.024-.181.435.435,0,0,0-.047-.217.147.147,0,0,0-.134-.083.236.236,0,0,0-.126.047A.765.765,0,0,0,4.1-14.6a1.729,1.729,0,0,0-.134.17q-.063.091-.11.17A9.923,9.923,0,0,0,3.3-13.106Q3.061-12.511,2.856-11.9ZM1.2-9.065q.2-.142.382-.3T1.95-9.7q.016-.1.032-.2t.032-.2a.448.448,0,0,0-.134-.2A.294.294,0,0,0,1.7-10.35a.669.669,0,0,0-.4.17,2.355,2.355,0,0,0-.4.406,3.05,3.05,0,0,0-.311.481.923.923,0,0,0-.126.386q0,.15.126.15a.6.6,0,0,0,.237-.071A2.551,2.551,0,0,0,1.2-9.065Z" transform="translate(1092.28 842.01)"/><path class="a" transform="translate(1096.556 833.6)"/><path class="a" transform="translate(1096.556 833.6)"/><path class="a" d="M6.3-4.311a.518.518,0,0,1,.118-.039.589.589,0,0,1,.126-.016q.063,0,.063.024t-.079.063q-.307.173-.647.323a1.6,1.6,0,0,1-.647.15.853.853,0,0,1-.477-.142A1.028,1.028,0,0,1,4.4-4.461q-.079-.2-.138-.394t-.13-.4a.174.174,0,0,0-.095.039.883.883,0,0,0-.11.095,1.387,1.387,0,0,0-.1.114l-.071.091q-.134.166-.237.307t-.2.292q-.1.15-.213.315t-.26.371a.236.236,0,0,1-.122.083.488.488,0,0,1-.154.028q-.1,0-.126-.047a1.062,1.062,0,0,1-.146-.363q-.043-.2-.071-.422T2.18-4.776a2.8,2.8,0,0,0-.051-.371.7.7,0,0,0-.106-.264.237.237,0,0,0-.2-.1.353.353,0,0,0-.177.059.978.978,0,0,0-.217.193,4.442,4.442,0,0,0-.394.509,5.816,5.816,0,0,0-.315.528A4.276,4.276,0,0,0,.5-3.755a1,1,0,0,0-.079.327q0,.063-.095.1a.471.471,0,0,1-.181.039q-.11,0-.11-.063v-.016q.071-.347.146-.674T.32-4.69q.063-.323.118-.65t.095-.682a.26.26,0,0,1,.106-.154A.284.284,0,0,1,.8-6.259q.039,0,.039.047Q.769-5.454.651-4.69A7.309,7.309,0,0,1,1.132-5.3a2.649,2.649,0,0,1,.363-.347.933.933,0,0,1,.276-.154.771.771,0,0,1,.221-.035.371.371,0,0,1,.268.1.751.751,0,0,1,.17.264,1.975,1.975,0,0,1,.106.375q.039.209.067.426t.055.422a2.371,2.371,0,0,0,.075.363q.024,0,.095-.1l.162-.237.185-.276q.095-.142.158-.221L3.537-5a3.055,3.055,0,0,1,.233-.28A1.387,1.387,0,0,1,4.025-5.5a.514.514,0,0,1,.284-.087.205.205,0,0,1,.185.118,1.274,1.274,0,0,1,.114.292q.047.173.1.382a1.824,1.824,0,0,0,.138.382.9.9,0,0,0,.229.292A.572.572,0,0,0,5.452-4a1.057,1.057,0,0,0,.449-.1Q6.123-4.209,6.3-4.311Z" transform="translate(1099.011 837.107)"/><path class="a" d="M6.3-4.311a.518.518,0,0,1,.118-.039.589.589,0,0,1,.126-.016q.063,0,.063.024t-.079.063q-.307.173-.647.323a1.6,1.6,0,0,1-.647.15.853.853,0,0,1-.477-.142A1.028,1.028,0,0,1,4.4-4.461q-.079-.2-.138-.394t-.13-.4a.174.174,0,0,0-.095.039.883.883,0,0,0-.11.095,1.387,1.387,0,0,0-.1.114l-.071.091q-.134.166-.237.307t-.2.292q-.1.15-.213.315t-.26.371a.236.236,0,0,1-.122.083.488.488,0,0,1-.154.028q-.1,0-.126-.047a1.062,1.062,0,0,1-.146-.363q-.043-.2-.071-.422T2.18-4.776a2.8,2.8,0,0,0-.051-.371.7.7,0,0,0-.106-.264.237.237,0,0,0-.2-.1.353.353,0,0,0-.177.059.978.978,0,0,0-.217.193,4.442,4.442,0,0,0-.394.509,5.816,5.816,0,0,0-.315.528A4.276,4.276,0,0,0,.5-3.755a1,1,0,0,0-.079.327q0,.063-.095.1a.471.471,0,0,1-.181.039q-.11,0-.11-.063v-.016q.071-.347.146-.674T.32-4.69q.063-.323.118-.65t.095-.682a.26.26,0,0,1,.106-.154A.284.284,0,0,1,.8-6.259q.039,0,.039.047Q.769-5.454.651-4.69A7.309,7.309,0,0,1,1.132-5.3a2.649,2.649,0,0,1,.363-.347.933.933,0,0,1,.276-.154.771.771,0,0,1,.221-.035.371.371,0,0,1,.268.1.751.751,0,0,1,.17.264,1.975,1.975,0,0,1,.106.375q.039.209.067.426t.055.422a2.371,2.371,0,0,0,.075.363q.024,0,.095-.1l.162-.237.185-.276q.095-.142.158-.221L3.537-5a3.055,3.055,0,0,1,.233-.28A1.387,1.387,0,0,1,4.025-5.5a.514.514,0,0,1,.284-.087.205.205,0,0,1,.185.118,1.274,1.274,0,0,1,.114.292q.047.173.1.382a1.824,1.824,0,0,0,.138.382.9.9,0,0,0,.229.292A.572.572,0,0,0,5.452-4a1.057,1.057,0,0,0,.449-.1Q6.123-4.209,6.3-4.311Z" transform="translate(1099.011 837.107)"/><path class="a" d="M.036-3.676a1.565,1.565,0,0,1,.075-.457A3.84,3.84,0,0,1,.288-4.6q.1-.225.2-.4t.15-.256q-.1-.008-.1-.079A.15.15,0,0,1,.6-5.454q.059-.051.083-.051.213.047.477.083a2.29,2.29,0,0,1,.5.122.989.989,0,0,1,.386.252.682.682,0,0,1,.154.481,1.274,1.274,0,0,1-.122.54,1.584,1.584,0,0,1-.331.469,1.705,1.705,0,0,1-.481.331A1.343,1.343,0,0,1,.69-3.1a.858.858,0,0,1-.445-.114.464.464,0,0,1-.209-.406ZM1.8-4.67a.717.717,0,0,0-.138-.272.7.7,0,0,0-.213-.17A.981.981,0,0,0,1.187-5.2Q1.045-5.229.9-5.245a3.524,3.524,0,0,1-.15.363Q.659-4.7.58-4.516a3.493,3.493,0,0,0-.134.371,1.305,1.305,0,0,0-.055.375.4.4,0,0,0,.142.347.483.483,0,0,0,.284.1.718.718,0,0,0,.351-.1,1.321,1.321,0,0,0,.327-.26,1.445,1.445,0,0,0,.244-.359.9.9,0,0,0,.095-.394A.805.805,0,0,0,1.8-4.67Z" transform="translate(1105.264 836.685)"/><path class="a" d="M.036-3.676a1.565,1.565,0,0,1,.075-.457A3.84,3.84,0,0,1,.288-4.6q.1-.225.2-.4t.15-.256q-.1-.008-.1-.079A.15.15,0,0,1,.6-5.454q.059-.051.083-.051.213.047.477.083a2.29,2.29,0,0,1,.5.122.989.989,0,0,1,.386.252.682.682,0,0,1,.154.481,1.274,1.274,0,0,1-.122.54,1.584,1.584,0,0,1-.331.469,1.705,1.705,0,0,1-.481.331A1.343,1.343,0,0,1,.69-3.1a.858.858,0,0,1-.445-.114.464.464,0,0,1-.209-.406ZM1.8-4.67a.717.717,0,0,0-.138-.272.7.7,0,0,0-.213-.17A.981.981,0,0,0,1.187-5.2Q1.045-5.229.9-5.245a3.524,3.524,0,0,1-.15.363Q.659-4.7.58-4.516a3.493,3.493,0,0,0-.134.371,1.305,1.305,0,0,0-.055.375.4.4,0,0,0,.142.347.483.483,0,0,0,.284.1.718.718,0,0,0,.351-.1,1.321,1.321,0,0,0,.327-.26,1.445,1.445,0,0,0,.244-.359.9.9,0,0,0,.095-.394A.805.805,0,0,0,1.8-4.67Z" transform="translate(1105.264 836.685)"/><path class="a" d="M2.77-5.6q0,.024-.032.024A.711.711,0,0,1,2.592-5.6a.86.86,0,0,0-.217-.028,1.042,1.042,0,0,0-.331.055,1.879,1.879,0,0,0-.315.138,2.368,2.368,0,0,0-.276.177q-.126.095-.2.166a3.053,3.053,0,0,0-.315.331A2.285,2.285,0,0,0,.7-4.414a2.218,2.218,0,0,0-.166.394,3.119,3.119,0,0,0-.106.481Q.42-3.491.31-3.452a.6.6,0,0,1-.2.039q-.095,0-.095-.039A.389.389,0,0,1,.03-3.546a.36.36,0,0,0,.012-.087q.11-.426.237-1.005T.491-5.833a.239.239,0,0,1,.126-.162.373.373,0,0,1,.166-.067q.032,0,.032.024a2.186,2.186,0,0,1-.024.284Q.767-5.58.743-5.4t-.051.339Q.664-4.9.649-4.816a2.195,2.195,0,0,1,.792-.721,1.945,1.945,0,0,1,.9-.24.923.923,0,0,1,.272.035.232.232,0,0,1,.154.122Z" transform="translate(1107.694 836.996)"/><path class="a" d="M2.77-5.6q0,.024-.032.024A.711.711,0,0,1,2.592-5.6a.86.86,0,0,0-.217-.028,1.042,1.042,0,0,0-.331.055,1.879,1.879,0,0,0-.315.138,2.368,2.368,0,0,0-.276.177q-.126.095-.2.166a3.053,3.053,0,0,0-.315.331A2.285,2.285,0,0,0,.7-4.414a2.218,2.218,0,0,0-.166.394,3.119,3.119,0,0,0-.106.481Q.42-3.491.31-3.452a.6.6,0,0,1-.2.039q-.095,0-.095-.039A.389.389,0,0,1,.03-3.546a.36.36,0,0,0,.012-.087q.11-.426.237-1.005T.491-5.833a.239.239,0,0,1,.126-.162.373.373,0,0,1,.166-.067q.032,0,.032.024a2.186,2.186,0,0,1-.024.284Q.767-5.58.743-5.4t-.051.339Q.664-4.9.649-4.816a2.195,2.195,0,0,1,.792-.721,1.945,1.945,0,0,1,.9-.24.923.923,0,0,1,.272.035.232.232,0,0,1,.154.122Z" transform="translate(1107.694 836.996)"/><path class="a" d="M2.935-4.3a.053.053,0,0,1,.039-.016.1.1,0,0,1,.063.028.074.074,0,0,1,.032.051q0,.016-.008.016a5.344,5.344,0,0,1-.41.347,5.078,5.078,0,0,1-.532.359,3.609,3.609,0,0,1-.6.284,1.819,1.819,0,0,1-.623.114.828.828,0,0,1-.445-.106.816.816,0,0,1-.26-.248.885.885,0,0,1-.122-.284Q.034-3.9.026-3.967a.714.714,0,0,1-.008-.126,1.566,1.566,0,0,1,.1-.572A1.88,1.88,0,0,1,.377-5.13a1.3,1.3,0,0,1,.335-.315.644.644,0,0,1,.339-.114.331.331,0,0,1,.244.087.3.3,0,0,1,.087.221.824.824,0,0,1-.142.4,1.547,1.547,0,0,1-.189.225q-.134.138-.272.272T.534-4.12q-.106.1-.106.114a.6.6,0,0,0,.035.185.764.764,0,0,0,.106.2.611.611,0,0,0,.181.166.507.507,0,0,0,.268.067,1.677,1.677,0,0,0,.532-.091A3.2,3.2,0,0,0,2.076-3.7,4.575,4.575,0,0,0,2.553-4Q2.777-4.164,2.935-4.3ZM1.122-5.275a.149.149,0,0,0-.11-.039.285.285,0,0,0-.2.079.888.888,0,0,0-.154.185,1.465,1.465,0,0,0-.114.221Q.5-4.716.475-4.653a.651.651,0,0,0-.051.2q-.012.118-.02.229a2.971,2.971,0,0,0,.244-.24l.237-.256A.807.807,0,0,0,.96-4.806a1.229,1.229,0,0,0,.083-.13q.039-.071.071-.142A.317.317,0,0,0,1.145-5.2.1.1,0,0,0,1.122-5.275Z" transform="translate(1110.359 836.715)"/><path class="a" d="M2.935-4.3a.053.053,0,0,1,.039-.016.1.1,0,0,1,.063.028.074.074,0,0,1,.032.051q0,.016-.008.016a5.344,5.344,0,0,1-.41.347,5.078,5.078,0,0,1-.532.359,3.609,3.609,0,0,1-.6.284,1.819,1.819,0,0,1-.623.114.828.828,0,0,1-.445-.106.816.816,0,0,1-.26-.248.885.885,0,0,1-.122-.284Q.034-3.9.026-3.967a.714.714,0,0,1-.008-.126,1.566,1.566,0,0,1,.1-.572A1.88,1.88,0,0,1,.377-5.13a1.3,1.3,0,0,1,.335-.315.644.644,0,0,1,.339-.114.331.331,0,0,1,.244.087.3.3,0,0,1,.087.221.824.824,0,0,1-.142.4,1.547,1.547,0,0,1-.189.225q-.134.138-.272.272T.534-4.12q-.106.1-.106.114a.6.6,0,0,0,.035.185.764.764,0,0,0,.106.2.611.611,0,0,0,.181.166.507.507,0,0,0,.268.067,1.677,1.677,0,0,0,.532-.091A3.2,3.2,0,0,0,2.076-3.7,4.575,4.575,0,0,0,2.553-4Q2.777-4.164,2.935-4.3ZM1.122-5.275a.149.149,0,0,0-.11-.039.285.285,0,0,0-.2.079.888.888,0,0,0-.154.185,1.465,1.465,0,0,0-.114.221Q.5-4.716.475-4.653a.651.651,0,0,0-.051.2q-.012.118-.02.229a2.971,2.971,0,0,0,.244-.24l.237-.256A.807.807,0,0,0,.96-4.806a1.229,1.229,0,0,0,.083-.13q.039-.071.071-.142A.317.317,0,0,0,1.145-5.2.1.1,0,0,0,1.122-5.275Z" transform="translate(1110.359 836.715)"/><path class="a" d="M1.535-1.006V-1.8h.789v.789a1.4,1.4,0,0,1-.154.7,1,1,0,0,1-.489.414l-.192-.3a.658.658,0,0,0,.323-.283,1.206,1.206,0,0,0,.115-.537Z" transform="translate(1112.199 834.606)"/><path class="a" d="M1.535-1.006V-1.8h.789v.789a1.4,1.4,0,0,1-.154.7,1,1,0,0,1-.489.414l-.192-.3a.658.658,0,0,0,.323-.283,1.206,1.206,0,0,0,.115-.537Z" transform="translate(1112.199 834.606)"/><path class="a" transform="translate(1115.224 833.6)"/><path class="a" transform="translate(1115.224 833.6)"/><path class="a" d="M1.138-15.111q-.087-.032-.087-.087a.17.17,0,0,1,.083-.126.277.277,0,0,1,.17-.063.205.205,0,0,1,.063.008q.3.1.658.264t.725.367a7.286,7.286,0,0,1,.706.449,4.214,4.214,0,0,1,.6.524,2.706,2.706,0,0,1,.426.583,1.318,1.318,0,0,1,.162.627.865.865,0,0,1-.138.481,1.6,1.6,0,0,1-.359.386,3.013,3.013,0,0,1-.5.315q-.28.142-.556.256t-.524.209a3.9,3.9,0,0,0-.414.181,7.691,7.691,0,0,1-.237.986q-.071.229-.189.516a3.032,3.032,0,0,1-.288.54,1.763,1.763,0,0,1-.4.426.85.85,0,0,1-.528.173A.412.412,0,0,1,.14-8.287a.8.8,0,0,1-.122-.438A1.036,1.036,0,0,1,.1-9.11,2.794,2.794,0,0,1,.8-10.128a4.607,4.607,0,0,1,1.037-.7q.055-.363.095-.832T2-12.619q.024-.489.035-.942t.012-.785q0-.11,0-.2t0-.166q-.276-.134-.509-.233T1.138-15.111Zm3.028,2.965a.92.92,0,0,0,.095-.4A1.083,1.083,0,0,0,4.1-13.1a2.416,2.416,0,0,0-.414-.52A4.478,4.478,0,0,0,3.1-14.09q-.327-.225-.658-.414,0,.875-.067,1.77t-.185,1.739q.252-.1.552-.213a6,6,0,0,0,.58-.248,3.305,3.305,0,0,0,.509-.307A1.047,1.047,0,0,0,4.165-12.146ZM.806-8.393A1.054,1.054,0,0,0,1.22-8.8a3.049,3.049,0,0,0,.28-.607,5.85,5.85,0,0,0,.177-.639q.067-.311.106-.5a3.72,3.72,0,0,0-.729.54,2.48,2.48,0,0,0-.532.745Q.459-9.126.408-9a.736.736,0,0,0-.051.272.485.485,0,0,0,.071.268.229.229,0,0,0,.2.11A.392.392,0,0,0,.806-8.393Z" transform="translate(1117.689 842.222)"/><path class="a" d="M1.138-15.111q-.087-.032-.087-.087a.17.17,0,0,1,.083-.126.277.277,0,0,1,.17-.063.205.205,0,0,1,.063.008q.3.1.658.264t.725.367a7.286,7.286,0,0,1,.706.449,4.214,4.214,0,0,1,.6.524,2.706,2.706,0,0,1,.426.583,1.318,1.318,0,0,1,.162.627.865.865,0,0,1-.138.481,1.6,1.6,0,0,1-.359.386,3.013,3.013,0,0,1-.5.315q-.28.142-.556.256t-.524.209a3.9,3.9,0,0,0-.414.181,7.691,7.691,0,0,1-.237.986q-.071.229-.189.516a3.032,3.032,0,0,1-.288.54,1.763,1.763,0,0,1-.4.426.85.85,0,0,1-.528.173A.412.412,0,0,1,.14-8.287a.8.8,0,0,1-.122-.438A1.036,1.036,0,0,1,.1-9.11,2.794,2.794,0,0,1,.8-10.128a4.607,4.607,0,0,1,1.037-.7q.055-.363.095-.832T2-12.619q.024-.489.035-.942t.012-.785q0-.11,0-.2t0-.166q-.276-.134-.509-.233T1.138-15.111Zm3.028,2.965a.92.92,0,0,0,.095-.4A1.083,1.083,0,0,0,4.1-13.1a2.416,2.416,0,0,0-.414-.52A4.478,4.478,0,0,0,3.1-14.09q-.327-.225-.658-.414,0,.875-.067,1.77t-.185,1.739q.252-.1.552-.213a6,6,0,0,0,.58-.248,3.305,3.305,0,0,0,.509-.307A1.047,1.047,0,0,0,4.165-12.146ZM.806-8.393A1.054,1.054,0,0,0,1.22-8.8a3.049,3.049,0,0,0,.28-.607,5.85,5.85,0,0,0,.177-.639q.067-.311.106-.5a3.72,3.72,0,0,0-.729.54,2.48,2.48,0,0,0-.532.745Q.459-9.126.408-9a.736.736,0,0,0-.051.272.485.485,0,0,0,.071.268.229.229,0,0,0,.2.11A.392.392,0,0,0,.806-8.393Z" transform="translate(1117.689 842.222)"/><path class="a" d="M4.386-4.172a.214.214,0,0,1,.1-.055A.443.443,0,0,1,4.6-4.243q.087,0,.087.047a.129.129,0,0,1-.047.079q-.158.15-.41.351a5.477,5.477,0,0,1-.54.378,4.536,4.536,0,0,1-.58.3,1.363,1.363,0,0,1-.536.126.57.57,0,0,1-.339-.091.613.613,0,0,1-.2-.24,1.109,1.109,0,0,1-.095-.339,3.048,3.048,0,0,1-.024-.378q-.063.047-.233.189a4.531,4.531,0,0,1-.394.292,4.1,4.1,0,0,1-.465.268.994.994,0,0,1-.43.118.365.365,0,0,1-.268-.11.438.438,0,0,1-.11-.323,1.225,1.225,0,0,1,.193-.607A3.14,3.14,0,0,1,.692-4.8a3.024,3.024,0,0,1,.615-.485,1.2,1.2,0,0,1,.6-.193.473.473,0,0,1,.4.189A.915.915,0,0,1,2.4-5.457a.224.224,0,0,1,.2-.1.166.166,0,0,1,.134.047,1.6,1.6,0,0,1-.087.252q-.071.173-.15.394t-.142.457a1.694,1.694,0,0,0-.063.434.966.966,0,0,0,.138.6.433.433,0,0,0,.351.17A.976.976,0,0,0,3.2-3.316a3.342,3.342,0,0,0,.445-.256,5.11,5.11,0,0,0,.418-.315Q4.26-4.053,4.386-4.172ZM1.2-3.785q.095-.071.24-.2a2.284,2.284,0,0,0,.28-.292,2.984,2.984,0,0,0,.244-.351A.963.963,0,0,0,2.1-5a.342.342,0,0,0-.323-.252.719.719,0,0,0-.438.185,2.432,2.432,0,0,0-.426.442A3.1,3.1,0,0,0,.59-4.1a1.091,1.091,0,0,0-.13.438q0,.166.142.166a.6.6,0,0,0,.233-.067A2.387,2.387,0,0,0,1.2-3.785Z" transform="translate(1121.568 836.715)"/><path class="a" d="M4.386-4.172a.214.214,0,0,1,.1-.055A.443.443,0,0,1,4.6-4.243q.087,0,.087.047a.129.129,0,0,1-.047.079q-.158.15-.41.351a5.477,5.477,0,0,1-.54.378,4.536,4.536,0,0,1-.58.3,1.363,1.363,0,0,1-.536.126.57.57,0,0,1-.339-.091.613.613,0,0,1-.2-.24,1.109,1.109,0,0,1-.095-.339,3.048,3.048,0,0,1-.024-.378q-.063.047-.233.189a4.531,4.531,0,0,1-.394.292,4.1,4.1,0,0,1-.465.268.994.994,0,0,1-.43.118.365.365,0,0,1-.268-.11.438.438,0,0,1-.11-.323,1.225,1.225,0,0,1,.193-.607A3.14,3.14,0,0,1,.692-4.8a3.024,3.024,0,0,1,.615-.485,1.2,1.2,0,0,1,.6-.193.473.473,0,0,1,.4.189A.915.915,0,0,1,2.4-5.457a.224.224,0,0,1,.2-.1.166.166,0,0,1,.134.047,1.6,1.6,0,0,1-.087.252q-.071.173-.15.394t-.142.457a1.694,1.694,0,0,0-.063.434.966.966,0,0,0,.138.6.433.433,0,0,0,.351.17A.976.976,0,0,0,3.2-3.316a3.342,3.342,0,0,0,.445-.256,5.11,5.11,0,0,0,.418-.315Q4.26-4.053,4.386-4.172ZM1.2-3.785q.095-.071.24-.2a2.284,2.284,0,0,0,.28-.292,2.984,2.984,0,0,0,.244-.351A.963.963,0,0,0,2.1-5a.342.342,0,0,0-.323-.252.719.719,0,0,0-.438.185,2.432,2.432,0,0,0-.426.442A3.1,3.1,0,0,0,.59-4.1a1.091,1.091,0,0,0-.13.438q0,.166.142.166a.6.6,0,0,0,.233-.067A2.387,2.387,0,0,0,1.2-3.785Z" transform="translate(1121.568 836.715)"/><path class="a" d="M.428-6.192q.016-.047.106-.075A.584.584,0,0,1,.7-6.294q.095,0,.095.039Q.735-5.987.664-5.7t-.13.564q-.059.276-.095.52A2.977,2.977,0,0,0,.4-4.2a.91.91,0,0,0,.032.284.118.118,0,0,0,.118.087A.333.333,0,0,0,.767-3.9l.2-.146a3.046,3.046,0,0,0,.615-.6,4.832,4.832,0,0,0,.323-.5,3.375,3.375,0,0,1,.209-.343.33.33,0,0,1,.288-.126q.071,0,.071.039-.071.315-.162.887T2.1-3.44q.386-.3.769-.56t.714-.512a.191.191,0,0,1,.11-.024.262.262,0,0,1,.083.012q.035.012.035.035t-.039.055q-.355.276-.824.6t-.9.666q-.118.583-.268,1.163A9.037,9.037,0,0,1,1.445-.969a3.009,3.009,0,0,1-.4.745A.623.623,0,0,1,.554.06.448.448,0,0,1,.172-.113.629.629,0,0,1,.042-.5,1.47,1.47,0,0,1,.132-.98,3.841,3.841,0,0,1,.357-1.5q.134-.256.284-.485a3.906,3.906,0,0,1,.284-.386q.166-.2.355-.382t.4-.359q.095-.434.17-.82t.138-.788a4.535,4.535,0,0,1-.371.457,3.347,3.347,0,0,1-.394.367,1.914,1.914,0,0,1-.39.24.9.9,0,0,1-.367.087.377.377,0,0,1-.351-.162.8.8,0,0,1-.1-.422,2.722,2.722,0,0,1,.043-.457q.043-.252.11-.52t.138-.54Q.381-5.94.428-6.192ZM1.611-2.81a2.357,2.357,0,0,0-.2.193l-.17.185q-.087.095-.24.3t-.311.461a3.673,3.673,0,0,0-.272.524A1.288,1.288,0,0,0,.3-.649a.471.471,0,0,0,.067.256A.192.192,0,0,0,.53-.287q.142,0,.292-.225a3,3,0,0,0,.284-.568q.134-.343.256-.753t.209-.781Z" transform="translate(1125.582 837.127)"/><path class="a" d="M.428-6.192q.016-.047.106-.075A.584.584,0,0,1,.7-6.294q.095,0,.095.039Q.735-5.987.664-5.7t-.13.564q-.059.276-.095.52A2.977,2.977,0,0,0,.4-4.2a.91.91,0,0,0,.032.284.118.118,0,0,0,.118.087A.333.333,0,0,0,.767-3.9l.2-.146a3.046,3.046,0,0,0,.615-.6,4.832,4.832,0,0,0,.323-.5,3.375,3.375,0,0,1,.209-.343.33.33,0,0,1,.288-.126q.071,0,.071.039-.071.315-.162.887T2.1-3.44q.386-.3.769-.56t.714-.512a.191.191,0,0,1,.11-.024.262.262,0,0,1,.083.012q.035.012.035.035t-.039.055q-.355.276-.824.6t-.9.666q-.118.583-.268,1.163A9.037,9.037,0,0,1,1.445-.969a3.009,3.009,0,0,1-.4.745A.623.623,0,0,1,.554.06.448.448,0,0,1,.172-.113.629.629,0,0,1,.042-.5,1.47,1.47,0,0,1,.132-.98,3.841,3.841,0,0,1,.357-1.5q.134-.256.284-.485a3.906,3.906,0,0,1,.284-.386q.166-.2.355-.382t.4-.359q.095-.434.17-.82t.138-.788a4.535,4.535,0,0,1-.371.457,3.347,3.347,0,0,1-.394.367,1.914,1.914,0,0,1-.39.24.9.9,0,0,1-.367.087.377.377,0,0,1-.351-.162.8.8,0,0,1-.1-.422,2.722,2.722,0,0,1,.043-.457q.043-.252.11-.52t.138-.54Q.381-5.94.428-6.192ZM1.611-2.81a2.357,2.357,0,0,0-.2.193l-.17.185q-.087.095-.24.3t-.311.461a3.673,3.673,0,0,0-.272.524A1.288,1.288,0,0,0,.3-.649a.471.471,0,0,0,.067.256A.192.192,0,0,0,.53-.287q.142,0,.292-.225a3,3,0,0,0,.284-.568q.134-.343.256-.753t.209-.781Z" transform="translate(1125.582 837.127)"/><path class="a" transform="translate(1128.974 833.6)"/><path class="a" transform="translate(1128.974 833.6)"/><path class="a" d="M.026-9.543a6.842,6.842,0,0,1,.114-.741q.083-.4.185-.8t.2-.737q.1-.343.189-.564.181-.5.4-1.033a5.8,5.8,0,0,1,.509-.986l.166-.248a1.4,1.4,0,0,1,.193-.233,1,1,0,0,1,.237-.17.636.636,0,0,1,.3-.067.276.276,0,0,1,.264.134.689.689,0,0,1,.075.339,2.031,2.031,0,0,1-.051.426q-.051.237-.122.477t-.154.461q-.083.221-.154.378-.166.371-.375.769t-.457.785q-.248.386-.528.749a6.874,6.874,0,0,1-.58.662q-.008.071-.012.162t0,.177a1.643,1.643,0,0,0,.051.442.936.936,0,0,0,.134.3A.483.483,0,0,0,.791-8.7.5.5,0,0,0,1-8.652a.87.87,0,0,0,.347-.079,2.7,2.7,0,0,0,.363-.193,3.58,3.58,0,0,0,.351-.252l.311-.252q.142-.114.248-.193A.324.324,0,0,1,2.785-9.7q.039,0,.039.032a.345.345,0,0,1-.095.162,2.721,2.721,0,0,1-.248.256q-.154.142-.355.3a4.224,4.224,0,0,1-.422.284,2.823,2.823,0,0,1-.442.213,1.173,1.173,0,0,1-.41.083.739.739,0,0,1-.623-.276,1.183,1.183,0,0,1-.213-.741v-.075A.382.382,0,0,1,.026-9.543Zm.883-2.491q-.047.15-.1.359T.7-11.238l-.1.457q-.051.229-.091.41a5.782,5.782,0,0,0,.438-.587q.209-.319.4-.658t.359-.674q.17-.335.311-.635t.3-.706a5.684,5.684,0,0,0,.24-.777.748.748,0,0,0,.024-.181.435.435,0,0,0-.047-.217.147.147,0,0,0-.134-.083.208.208,0,0,0-.122.051,1.18,1.18,0,0,0-.138.126,1.166,1.166,0,0,0-.13.166q-.059.091-.106.17a9.772,9.772,0,0,0-.552,1.147Q1.106-12.642.909-12.035Z" transform="translate(1131.44 842.071)"/><path class="a" d="M.026-9.543a6.842,6.842,0,0,1,.114-.741q.083-.4.185-.8t.2-.737q.1-.343.189-.564.181-.5.4-1.033a5.8,5.8,0,0,1,.509-.986l.166-.248a1.4,1.4,0,0,1,.193-.233,1,1,0,0,1,.237-.17.636.636,0,0,1,.3-.067.276.276,0,0,1,.264.134.689.689,0,0,1,.075.339,2.031,2.031,0,0,1-.051.426q-.051.237-.122.477t-.154.461q-.083.221-.154.378-.166.371-.375.769t-.457.785q-.248.386-.528.749a6.874,6.874,0,0,1-.58.662q-.008.071-.012.162t0,.177a1.643,1.643,0,0,0,.051.442.936.936,0,0,0,.134.3A.483.483,0,0,0,.791-8.7.5.5,0,0,0,1-8.652a.87.87,0,0,0,.347-.079,2.7,2.7,0,0,0,.363-.193,3.58,3.58,0,0,0,.351-.252l.311-.252q.142-.114.248-.193A.324.324,0,0,1,2.785-9.7q.039,0,.039.032a.345.345,0,0,1-.095.162,2.721,2.721,0,0,1-.248.256q-.154.142-.355.3a4.224,4.224,0,0,1-.422.284,2.823,2.823,0,0,1-.442.213,1.173,1.173,0,0,1-.41.083.739.739,0,0,1-.623-.276,1.183,1.183,0,0,1-.213-.741v-.075A.382.382,0,0,1,.026-9.543Zm.883-2.491q-.047.15-.1.359T.7-11.238l-.1.457q-.051.229-.091.41a5.782,5.782,0,0,0,.438-.587q.209-.319.4-.658t.359-.674q.17-.335.311-.635t.3-.706a5.684,5.684,0,0,0,.24-.777.748.748,0,0,0,.024-.181.435.435,0,0,0-.047-.217.147.147,0,0,0-.134-.083.208.208,0,0,0-.122.051,1.18,1.18,0,0,0-.138.126,1.166,1.166,0,0,0-.13.166q-.059.091-.106.17a9.772,9.772,0,0,0-.552,1.147Q1.106-12.642.909-12.035Z" transform="translate(1131.44 842.071)"/><path class="a" d="M2.935-4.3a.053.053,0,0,1,.039-.016.1.1,0,0,1,.063.028.074.074,0,0,1,.032.051q0,.016-.008.016a5.344,5.344,0,0,1-.41.347,5.078,5.078,0,0,1-.532.359,3.609,3.609,0,0,1-.6.284,1.819,1.819,0,0,1-.623.114.828.828,0,0,1-.445-.106.816.816,0,0,1-.26-.248.885.885,0,0,1-.122-.284Q.034-3.9.026-3.967a.714.714,0,0,1-.008-.126,1.566,1.566,0,0,1,.1-.572A1.88,1.88,0,0,1,.377-5.13a1.3,1.3,0,0,1,.335-.315.644.644,0,0,1,.339-.114.331.331,0,0,1,.244.087.3.3,0,0,1,.087.221.824.824,0,0,1-.142.4,1.547,1.547,0,0,1-.189.225q-.134.138-.272.272T.534-4.12q-.106.1-.106.114a.6.6,0,0,0,.035.185.764.764,0,0,0,.106.2.611.611,0,0,0,.181.166.507.507,0,0,0,.268.067,1.677,1.677,0,0,0,.532-.091A3.2,3.2,0,0,0,2.076-3.7,4.575,4.575,0,0,0,2.553-4Q2.777-4.164,2.935-4.3ZM1.122-5.275a.149.149,0,0,0-.11-.039.285.285,0,0,0-.2.079.888.888,0,0,0-.154.185,1.465,1.465,0,0,0-.114.221Q.5-4.716.475-4.653a.651.651,0,0,0-.051.2q-.012.118-.02.229a2.971,2.971,0,0,0,.244-.24l.237-.256A.807.807,0,0,0,.96-4.806a1.229,1.229,0,0,0,.083-.13q.039-.071.071-.142A.317.317,0,0,0,1.145-5.2.1.1,0,0,0,1.122-5.275Z" transform="translate(1133.837 836.715)"/><path class="a" d="M2.935-4.3a.053.053,0,0,1,.039-.016.1.1,0,0,1,.063.028.074.074,0,0,1,.032.051q0,.016-.008.016a5.344,5.344,0,0,1-.41.347,5.078,5.078,0,0,1-.532.359,3.609,3.609,0,0,1-.6.284,1.819,1.819,0,0,1-.623.114.828.828,0,0,1-.445-.106.816.816,0,0,1-.26-.248.885.885,0,0,1-.122-.284Q.034-3.9.026-3.967a.714.714,0,0,1-.008-.126,1.566,1.566,0,0,1,.1-.572A1.88,1.88,0,0,1,.377-5.13a1.3,1.3,0,0,1,.335-.315.644.644,0,0,1,.339-.114.331.331,0,0,1,.244.087.3.3,0,0,1,.087.221.824.824,0,0,1-.142.4,1.547,1.547,0,0,1-.189.225q-.134.138-.272.272T.534-4.12q-.106.1-.106.114a.6.6,0,0,0,.035.185.764.764,0,0,0,.106.2.611.611,0,0,0,.181.166.507.507,0,0,0,.268.067,1.677,1.677,0,0,0,.532-.091A3.2,3.2,0,0,0,2.076-3.7,4.575,4.575,0,0,0,2.553-4Q2.777-4.164,2.935-4.3ZM1.122-5.275a.149.149,0,0,0-.11-.039.285.285,0,0,0-.2.079.888.888,0,0,0-.154.185,1.465,1.465,0,0,0-.114.221Q.5-4.716.475-4.653a.651.651,0,0,0-.051.2q-.012.118-.02.229a2.971,2.971,0,0,0,.244-.24l.237-.256A.807.807,0,0,0,.96-4.806a1.229,1.229,0,0,0,.083-.13q.039-.071.071-.142A.317.317,0,0,0,1.145-5.2.1.1,0,0,0,1.122-5.275Z" transform="translate(1133.837 836.715)"/><path class="a" d="M1.855-5.712a.305.305,0,0,1,.043.079.272.272,0,0,1,.028.1.023.023,0,0,1-.008.016.217.217,0,0,1-.087-.039q-.063-.039-.158-.087a1.628,1.628,0,0,0-.213-.087.819.819,0,0,0-.26-.039.77.77,0,0,0-.445.138.418.418,0,0,0-.2.359.318.318,0,0,0,.024.126,1.86,1.86,0,0,0,.134.367Q.8-4.6.9-4.426t.193.351a2.371,2.371,0,0,1,.158.367q.442-.213.859-.378a6.1,6.1,0,0,0,.662-.3.263.263,0,0,1,.118-.024.17.17,0,0,1,.067.012.038.038,0,0,1,.028.035q0,.032-.079.079a4.544,4.544,0,0,1-.792.394,7.665,7.665,0,0,0-.808.363,1.6,1.6,0,0,1,.039.339,1.168,1.168,0,0,1-.055.339,1.257,1.257,0,0,1-.162.339,1,1,0,0,1-.26.264.589.589,0,0,1-.343.106.508.508,0,0,1-.39-.126.386.386,0,0,1-.114-.26A.628.628,0,0,1,.1-2.834a1.336,1.336,0,0,1,.213-.284A1.814,1.814,0,0,1,.6-3.358a2.692,2.692,0,0,1,.3-.177,3.13,3.13,0,0,0-.181-.43Q.609-4.182.5-4.395T.318-4.809A1.066,1.066,0,0,1,.239-5.2.627.627,0,0,1,.3-5.451.834.834,0,0,1,.475-5.7a.9.9,0,0,1,.3-.193,1.164,1.164,0,0,1,.438-.075.979.979,0,0,1,.331.059A.83.83,0,0,1,1.855-5.712ZM.806-2.534a.614.614,0,0,0,.142-.24.906.906,0,0,0,.039-.264A1.393,1.393,0,0,0,.98-3.185,1.3,1.3,0,0,0,.956-3.33Q.885-3.283.767-3.2t-.233.189a1.164,1.164,0,0,0-.193.221.414.414,0,0,0-.079.229.173.173,0,0,0,.067.146.246.246,0,0,0,.154.051A.385.385,0,0,0,.657-2.4.414.414,0,0,0,.806-2.534Z" transform="translate(1136.501 836.946)"/><path class="a" d="M1.855-5.712a.305.305,0,0,1,.043.079.272.272,0,0,1,.028.1.023.023,0,0,1-.008.016.217.217,0,0,1-.087-.039q-.063-.039-.158-.087a1.628,1.628,0,0,0-.213-.087.819.819,0,0,0-.26-.039.77.77,0,0,0-.445.138.418.418,0,0,0-.2.359.318.318,0,0,0,.024.126,1.86,1.86,0,0,0,.134.367Q.8-4.6.9-4.426t.193.351a2.371,2.371,0,0,1,.158.367q.442-.213.859-.378a6.1,6.1,0,0,0,.662-.3.263.263,0,0,1,.118-.024.17.17,0,0,1,.067.012.038.038,0,0,1,.028.035q0,.032-.079.079a4.544,4.544,0,0,1-.792.394,7.665,7.665,0,0,0-.808.363,1.6,1.6,0,0,1,.039.339,1.168,1.168,0,0,1-.055.339,1.257,1.257,0,0,1-.162.339,1,1,0,0,1-.26.264.589.589,0,0,1-.343.106.508.508,0,0,1-.39-.126.386.386,0,0,1-.114-.26A.628.628,0,0,1,.1-2.834a1.336,1.336,0,0,1,.213-.284A1.814,1.814,0,0,1,.6-3.358a2.692,2.692,0,0,1,.3-.177,3.13,3.13,0,0,0-.181-.43Q.609-4.182.5-4.395T.318-4.809A1.066,1.066,0,0,1,.239-5.2.627.627,0,0,1,.3-5.451.834.834,0,0,1,.475-5.7a.9.9,0,0,1,.3-.193,1.164,1.164,0,0,1,.438-.075.979.979,0,0,1,.331.059A.83.83,0,0,1,1.855-5.712ZM.806-2.534a.614.614,0,0,0,.142-.24.906.906,0,0,0,.039-.264A1.393,1.393,0,0,0,.98-3.185,1.3,1.3,0,0,0,.956-3.33Q.885-3.283.767-3.2t-.233.189a1.164,1.164,0,0,0-.193.221.414.414,0,0,0-.079.229.173.173,0,0,0,.067.146.246.246,0,0,0,.154.051A.385.385,0,0,0,.657-2.4.414.414,0,0,0,.806-2.534Z" transform="translate(1136.501 836.946)"/><path class="a" d="M1.855-5.712a.305.305,0,0,1,.043.079.272.272,0,0,1,.028.1.023.023,0,0,1-.008.016.217.217,0,0,1-.087-.039q-.063-.039-.158-.087a1.628,1.628,0,0,0-.213-.087.819.819,0,0,0-.26-.039.77.77,0,0,0-.445.138.418.418,0,0,0-.2.359.318.318,0,0,0,.024.126,1.86,1.86,0,0,0,.134.367Q.8-4.6.9-4.426t.193.351a2.371,2.371,0,0,1,.158.367q.442-.213.859-.378a6.1,6.1,0,0,0,.662-.3.263.263,0,0,1,.118-.024.17.17,0,0,1,.067.012.038.038,0,0,1,.028.035q0,.032-.079.079a4.544,4.544,0,0,1-.792.394,7.665,7.665,0,0,0-.808.363,1.6,1.6,0,0,1,.039.339,1.168,1.168,0,0,1-.055.339,1.257,1.257,0,0,1-.162.339,1,1,0,0,1-.26.264.589.589,0,0,1-.343.106.508.508,0,0,1-.39-.126.386.386,0,0,1-.114-.26A.628.628,0,0,1,.1-2.834a1.336,1.336,0,0,1,.213-.284A1.814,1.814,0,0,1,.6-3.358a2.692,2.692,0,0,1,.3-.177,3.13,3.13,0,0,0-.181-.43Q.609-4.182.5-4.395T.318-4.809A1.066,1.066,0,0,1,.239-5.2.627.627,0,0,1,.3-5.451.834.834,0,0,1,.475-5.7a.9.9,0,0,1,.3-.193,1.164,1.164,0,0,1,.438-.075.979.979,0,0,1,.331.059A.83.83,0,0,1,1.855-5.712ZM.806-2.534a.614.614,0,0,0,.142-.24.906.906,0,0,0,.039-.264A1.393,1.393,0,0,0,.98-3.185,1.3,1.3,0,0,0,.956-3.33Q.885-3.283.767-3.2t-.233.189a1.164,1.164,0,0,0-.193.221.414.414,0,0,0-.079.229.173.173,0,0,0,.067.146.246.246,0,0,0,.154.051A.385.385,0,0,0,.657-2.4.414.414,0,0,0,.806-2.534Z" transform="translate(1139.119 836.946)"/><path class="a" d="M1.855-5.712a.305.305,0,0,1,.043.079.272.272,0,0,1,.028.1.023.023,0,0,1-.008.016.217.217,0,0,1-.087-.039q-.063-.039-.158-.087a1.628,1.628,0,0,0-.213-.087.819.819,0,0,0-.26-.039.77.77,0,0,0-.445.138.418.418,0,0,0-.2.359.318.318,0,0,0,.024.126,1.86,1.86,0,0,0,.134.367Q.8-4.6.9-4.426t.193.351a2.371,2.371,0,0,1,.158.367q.442-.213.859-.378a6.1,6.1,0,0,0,.662-.3.263.263,0,0,1,.118-.024.17.17,0,0,1,.067.012.038.038,0,0,1,.028.035q0,.032-.079.079a4.544,4.544,0,0,1-.792.394,7.665,7.665,0,0,0-.808.363,1.6,1.6,0,0,1,.039.339,1.168,1.168,0,0,1-.055.339,1.257,1.257,0,0,1-.162.339,1,1,0,0,1-.26.264.589.589,0,0,1-.343.106.508.508,0,0,1-.39-.126.386.386,0,0,1-.114-.26A.628.628,0,0,1,.1-2.834a1.336,1.336,0,0,1,.213-.284A1.814,1.814,0,0,1,.6-3.358a2.692,2.692,0,0,1,.3-.177,3.13,3.13,0,0,0-.181-.43Q.609-4.182.5-4.395T.318-4.809A1.066,1.066,0,0,1,.239-5.2.627.627,0,0,1,.3-5.451.834.834,0,0,1,.475-5.7a.9.9,0,0,1,.3-.193,1.164,1.164,0,0,1,.438-.075.979.979,0,0,1,.331.059A.83.83,0,0,1,1.855-5.712ZM.806-2.534a.614.614,0,0,0,.142-.24.906.906,0,0,0,.039-.264A1.393,1.393,0,0,0,.98-3.185,1.3,1.3,0,0,0,.956-3.33Q.885-3.283.767-3.2t-.233.189a1.164,1.164,0,0,0-.193.221.414.414,0,0,0-.079.229.173.173,0,0,0,.067.146.246.246,0,0,0,.154.051A.385.385,0,0,0,.657-2.4.414.414,0,0,0,.806-2.534Z" transform="translate(1139.119 836.946)"/><path class="a" d="M1.629-1.006V-1.8h.789v.789Z" transform="translate(1140.834 834.606)"/><path class="a" d="M1.629-1.006V-1.8h.789v.789Z" transform="translate(1140.834 834.606)"/><path class="b" d="M624.824,502.83c-1.009-12.746,12.54-12.205,13.919-1.83.044.335-.135-.018-.109.338C633.745,490.129,627.071,490.438,624.824,502.83Z" transform="translate(433.849 305.2)"/><path class="c" d="M624.826,502.833c-1.008-12.745,12.54-12.205,13.92-1.83.044.335-.135-.018-.11.338-4.888-11.208-11.562-10.9-13.81,1.493" transform="translate(433.848 305.198)"/><path class="d" d="M624.846,502.935c1.06-5.845,3.1-9,5.483-9.53C627.132,493.868,624.37,496.924,624.846,502.935Z" transform="translate(433.837 305.097)"/><path class="c" d="M624.826,502.934c1.06-5.845,3.105-9,5.483-9.529-3.2.463-5.958,3.519-5.483,9.529" transform="translate(433.848 305.097)"/><path class="e" d="M647.246,501.032c-.654-4.918-4.043-7.626-7.319-7.757,2.382.27,4.981,2.985,7.209,8.094C647.111,501.014,647.29,501.366,647.246,501.032Z" transform="translate(425.356 305.17)"/><path class="c" d="M647.227,501.031c-.654-4.918-4.042-7.626-7.318-7.757,2.382.27,4.98,2.986,7.208,8.094-.026-.356.154,0,.11-.338" transform="translate(425.366 305.17)"/><path class="f" d="M620.722,502.451c-1.108-13.94,12.168-13.575,13.617-2.237.047.366-.133-.018-.1.371C629.342,488.393,622.807,488.844,620.722,502.451Z" transform="translate(436.154 305.983)"/><path class="g" d="M642.527,500.237c-.687-5.375-4.032-8.284-7.242-8.372,2.335.255,4.907,3.186,7.138,8.743C642.394,500.219,642.573,500.6,642.527,500.237Z" transform="translate(427.957 305.96)"/><path class="c" d="M642.559,500.206c-.687-5.374-4.032-8.283-7.242-8.371,2.336.255,4.907,3.186,7.138,8.742-.029-.389.151-.005.1-.371" transform="translate(427.939 305.977)"/><path class="h" d="M61.733-5382.035h0a51.263,51.263,0,0,0,.514-10.814,35.569,35.569,0,0,0-2.287-10.584,37.5,37.5,0,0,0,7.821.841,37.374,37.374,0,0,0,13.578-2.614,61.193,61.193,0,0,0-.113,10.783,56.215,56.215,0,0,0,1.887,10.617,47.172,47.172,0,0,0-6.748-.488,50.054,50.054,0,0,0-14.651,2.261Zm1.59-6.787v4.465h4.466v-4.465Zm8.95-1.829h0l-3.877,2.215,2.215,3.877,3.877-2.216-2.215-3.875Zm7.066.186h0l-4.464.035.035,4.464,4.466-.035-.037-4.464Zm-12.348-5.021-4.247,1.38,1.38,4.247,4.247-1.381-1.38-4.246Zm2.747-.681h0l-.91,4.372,4.372.909.909-4.372-4.371-.909Zm8.78-1.339-4.257,1.347,1.346,4.257,4.257-1.346-1.346-4.258Zm-15.195-2.887v4.465h4.466v-4.465Zm8.95-1.829h0L68.4-5400l2.215,3.877,3.877-2.216-2.215-3.877Zm7.066.186h0l-4.464.035.035,4.466,4.466-.035-.037-4.466Z" transform="translate(993.316 6209.87)"/><path class="a" d="M11.054-20.889H7.766v-8.1a1.959,1.959,0,0,0-.691-1.668,2.5,2.5,0,0,0-1.549-.524A2.4,2.4,0,0,0,4-30.657a1.991,1.991,0,0,0-.667,1.668v8.1H0v-7.433q0-3.24,1.691-4.336a7.388,7.388,0,0,1,3.74-1.191,9.644,9.644,0,0,1,2.144.238,4.5,4.5,0,0,1,1.906.953,4.206,4.206,0,0,1,1.691-.881,9.447,9.447,0,0,1,2.025-.31,7.17,7.17,0,0,1,3.859,1.1q1.763,1.1,1.763,4.431v7.433H17.153a1.58,1.58,0,0,1-1.167-.453,1.58,1.58,0,0,1-.453-1.167v-6.48a1.959,1.959,0,0,0-.691-1.668,2.5,2.5,0,0,0-1.549-.524,2.5,2.5,0,0,0-1.549.524,1.959,1.959,0,0,0-.691,1.668v8.1Zm16.009-6.385a8.984,8.984,0,0,1-1.858.619l-1.1.238a2.809,2.809,0,0,0-1.239.619,1.939,1.939,0,0,0-.334,1.048,1.545,1.545,0,0,0,.429,1.144,1.807,1.807,0,0,0,1.239.381,2.833,2.833,0,0,0,2.1-.762,2.833,2.833,0,0,0,.762-2.1Zm.762,5.861a5.868,5.868,0,0,1-2.12.643,18.948,18.948,0,0,1-1.977.119,4.992,4.992,0,0,1-3-.929,3.533,3.533,0,0,1-1.286-3.073,3.312,3.312,0,0,1,1.167-2.859,6.727,6.727,0,0,1,2.978-1.144,2.794,2.794,0,0,0,.572-.071q.334-.071.762-.119,2.1-.286,2.1-1.239a.9.9,0,0,0-.739-.929,4.9,4.9,0,0,0-1.358-.214,3.471,3.471,0,0,0-1.191.191,1.3,1.3,0,0,0-.762.715H19.773a3.669,3.669,0,0,1,1.334-2.43,5.5,5.5,0,0,1,3.669-1.1,7.175,7.175,0,0,1,4,.905,3.059,3.059,0,0,1,1.382,2.668v4.336a5.472,5.472,0,0,1-.691,2.978A4.226,4.226,0,0,1,27.826-21.413Zm2.811.524v-6.146a7.845,7.845,0,0,1,.548-3.121,5.17,5.17,0,0,1,1.5-2.025,5.9,5.9,0,0,1,2.12-1.048,9.407,9.407,0,0,1,2.5-.334h.476v3.383h-1.1a2.79,2.79,0,0,0-2.049.667,2.864,2.864,0,0,0-.667,2.1v6.528ZM41.453-33.563v4.669l4.05-4.669h4L44.978-28.7l4.574,7.814h-4l-2.335-4.288q-.715-1.286-1.239-1.1t-.524.572v4.812H38.117V-37.28h1.715a1.56,1.56,0,0,1,1.144.476,1.506,1.506,0,0,1,.476,1.1ZM58.939-24.8h2.382a5.2,5.2,0,0,1-2,3.049,6.068,6.068,0,0,1-3.716,1.1,5.308,5.308,0,0,1-4.241-1.763,7.151,7.151,0,0,1-1.525-4.908,7.07,7.07,0,0,1,1.477-4.765,5.308,5.308,0,0,1,4.241-1.763,5.709,5.709,0,0,1,4.431,1.715,7.263,7.263,0,0,1,1.525,4.908v.524a.818.818,0,0,1-.048.334H53.221a3.283,3.283,0,0,0,.715,2.192,2.253,2.253,0,0,0,1.858.762,2.7,2.7,0,0,0,1.382-.334.669.669,0,0,0,.262-.167l.262-.262a1.04,1.04,0,0,1,.357-.381A1.42,1.42,0,0,1,58.939-24.8Zm-5.718-3.716h4.86a3.087,3.087,0,0,0-.667-1.906,2.287,2.287,0,0,0-1.763-.667,2.322,2.322,0,0,0-1.715.667A2.736,2.736,0,0,0,53.221-28.513Zm14.437,7.623a24.738,24.738,0,0,1-3.407-.048q-1.834-.143-1.834-2.335V-37.28h1.715a1.506,1.506,0,0,1,1.1.476A1.56,1.56,0,0,1,65.7-35.66v2.144h1.954v.667a1.538,1.538,0,0,1-.476,1.167,1.6,1.6,0,0,1-1.144.453H65.7v7.052q0,.81.953.81h1Z" transform="translate(983.96 843.557)"/><path class="a" d="M-.65-20.71H2.59A1.757,1.757,0,0,0,3.3-19.281,3.387,3.387,0,0,0,5.21-18.8a3.074,3.074,0,0,0,1.477-.334,1.013,1.013,0,0,0,.572-.905q0-.858-2-1.286a9.111,9.111,0,0,1-1.286-.286A7.522,7.522,0,0,1,.589-23.092a2.926,2.926,0,0,1-.953-2.287,3.8,3.8,0,0,1,1.382-3,5.94,5.94,0,0,1,3.716-1.1,6.488,6.488,0,0,1,3.955,1.1,4.191,4.191,0,0,1,1.477,3.1H8.117a1.515,1.515,0,0,1-1.382-.81l-.381-.381A2.568,2.568,0,0,0,4.781-26.9a2.835,2.835,0,0,0-1.429.286.962.962,0,0,0-.429.858q0,.762,2.478,1.286a5.143,5.143,0,0,0,.5.143,1.87,1.87,0,0,0,.4.048,8.81,8.81,0,0,1,3.383,1.429,3,3,0,0,1,.905,2.287,3.811,3.811,0,0,1-1.525,3.24,7.233,7.233,0,0,1-4.288,1.048,6.29,6.29,0,0,1-4.05-1.1A3.832,3.832,0,0,1-.65-20.567ZM19.5-13.468v-4.717a3.983,3.983,0,0,1-1.525,1.477,5.05,5.05,0,0,1-2.1.429,4.387,4.387,0,0,1-3.669-1.811,7.69,7.69,0,0,1-1.382-4.86,7.647,7.647,0,0,1,1.382-4.765,4.5,4.5,0,0,1,1.906-1.31,6.789,6.789,0,0,1,2.43-.453,7.88,7.88,0,0,1,4.241,1.215q1.954,1.215,1.954,4.55v11.864h-1.62a1.56,1.56,0,0,1-1.144-.476A1.56,1.56,0,0,1,19.5-13.468Zm-5.432-9.339a4.59,4.59,0,0,0,.715,2.716,2.274,2.274,0,0,0,1.954,1,2.365,2.365,0,0,0,2.049-1,4.332,4.332,0,0,0,.715-2.716,5.142,5.142,0,0,0-.667-2.859,2.319,2.319,0,0,0-2-1,2.365,2.365,0,0,0-2.049,1A4.872,4.872,0,0,0,14.073-22.806Zm20.3-6.385v7.433q0,3.383-1.763,4.431a7.414,7.414,0,0,1-3.859,1.048,7.656,7.656,0,0,1-3.74-1.144q-1.691-1.048-1.691-4.336v-7.433h3.335v8.1a1.991,1.991,0,0,0,.667,1.668,2.4,2.4,0,0,0,1.525.524,2.5,2.5,0,0,0,1.549-.524,1.959,1.959,0,0,0,.691-1.668v-6.48a1.6,1.6,0,0,1,.453-1.144,1.538,1.538,0,0,1,1.167-.476ZM42.232-22.9a8.984,8.984,0,0,1-1.858.619l-1.1.238a2.809,2.809,0,0,0-1.239.619,1.939,1.939,0,0,0-.334,1.048,1.545,1.545,0,0,0,.429,1.144,1.807,1.807,0,0,0,1.239.381,2.833,2.833,0,0,0,2.1-.762,2.833,2.833,0,0,0,.762-2.1Zm.762,5.861a5.868,5.868,0,0,1-2.12.643,18.948,18.948,0,0,1-1.977.119,4.992,4.992,0,0,1-3-.929,3.533,3.533,0,0,1-1.286-3.073,3.312,3.312,0,0,1,1.167-2.859,6.727,6.727,0,0,1,2.978-1.144,2.794,2.794,0,0,0,.572-.071q.334-.071.762-.119,2.1-.286,2.1-1.239a.9.9,0,0,0-.739-.929,4.9,4.9,0,0,0-1.358-.214,3.471,3.471,0,0,0-1.191.191,1.3,1.3,0,0,0-.762.715H34.942a3.669,3.669,0,0,1,1.334-2.43,5.5,5.5,0,0,1,3.669-1.1,7.175,7.175,0,0,1,4,.905A3.059,3.059,0,0,1,45.329-25.9v4.336a5.472,5.472,0,0,1-.691,2.978A4.226,4.226,0,0,1,42.994-17.041Zm2.811.524v-6.146a7.845,7.845,0,0,1,.548-3.121,5.17,5.17,0,0,1,1.5-2.025,5.9,5.9,0,0,1,2.12-1.048,9.406,9.406,0,0,1,2.5-.334h.476v3.383h-1.1a2.79,2.79,0,0,0-2.049.667,2.864,2.864,0,0,0-.667,2.1v6.528Zm16.3-3.907h2.382a5.2,5.2,0,0,1-2,3.049,6.067,6.067,0,0,1-3.716,1.1,5.308,5.308,0,0,1-4.241-1.763A7.151,7.151,0,0,1,53-22.949a7.07,7.07,0,0,1,1.477-4.765,5.308,5.308,0,0,1,4.241-1.763,5.709,5.709,0,0,1,4.431,1.715,7.263,7.263,0,0,1,1.525,4.908v.524a.818.818,0,0,1-.048.334H56.383A3.283,3.283,0,0,0,57.1-19.8a2.253,2.253,0,0,0,1.858.762,2.7,2.7,0,0,0,1.382-.334.669.669,0,0,0,.262-.167l.262-.262a1.039,1.039,0,0,1,.357-.381A1.42,1.42,0,0,1,62.1-20.424Zm-5.718-3.716h4.86a3.087,3.087,0,0,0-.667-1.906,2.287,2.287,0,0,0-1.763-.667,2.322,2.322,0,0,0-1.715.667A2.736,2.736,0,0,0,56.383-24.141Z" transform="translate(1077.883 839.185)"/><path class="i" d="M456.558,551.947c19.126,0,37.778,2.1,56.451,1.889,2.71-.03,10.091-.5,12.842-1.829a10.79,10.79,0,0,1,2.222-.294h-1.395" transform="translate(528.105 272.424)"/><path class="i" d="M659.55,512.871c18.278,0,36.1-2,53.949-1.8,2.59.029,9.643.474,12.273,1.747a10.313,10.313,0,0,0,2.124.281h-1.333" transform="translate(414.36 295.208)"/></g></svg>