<svg xmlns="http://www.w3.org/2000/svg" width="16" height="16" viewBox="0 0 16 16"><defs><style>.a{fill:#fff;}</style></defs><path class="a" d="M123.312,109.466H111.624a2.156,2.156,0,0,0-2.156,2.156V123.31a2.156,2.156,0,0,0,2.156,2.156h5.764l.01-5.717h-1.486a.35.35,0,0,1-.35-.349l-.007-1.843a.351.351,0,0,1,.35-.352h1.483v-1.781a2.909,2.909,0,0,1,3.106-3.192h1.513a.351.351,0,0,1,.35.35v1.554a.35.35,0,0,1-.35.35h-.928c-1,0-1.2.476-1.2,1.176V117.2h2.2a.35.35,0,0,1,.348.392l-.218,1.843a.35.35,0,0,1-.348.309h-1.975l-.01,5.717h3.43a2.156,2.156,0,0,0,2.156-2.156V111.622a2.156,2.156,0,0,0-2.156-2.156Z" transform="translate(-109.468 -109.466)"/><path class="a" d="M254.292,303.779l.01-5.971h-.026v5.971Z" transform="translate(-246.372 -287.779)"/></svg>