<svg xmlns="http://www.w3.org/2000/svg" width="30.382" height="21.034" viewBox="0 0 30.382 21.034"><defs><style>.a{fill:#fff;}</style></defs><g transform="translate(-3 -7)"><path class="a" d="M31.045,7H5.337A2.337,2.337,0,0,0,3,9.337V25.7a2.337,2.337,0,0,0,2.337,2.337H31.045A2.337,2.337,0,0,0,33.382,25.7V9.337A2.337,2.337,0,0,0,31.045,7ZM5.337,25.7V9.337H31.045V25.7Z" transform="translate(0)"/><path class="a" d="M11.843,10H7.169A1.169,1.169,0,0,0,6,11.169v4.674a1.169,1.169,0,0,0,1.169,1.169h4.674a1.169,1.169,0,0,0,1.169-1.169V11.169A1.169,1.169,0,0,0,11.843,10Zm-1.169,4.674H8.337V12.337h2.337Z" transform="translate(0.506 0.506)"/><path class="a" d="M11.843,20H7.169a1.169,1.169,0,1,0,0,2.337h4.674a1.169,1.169,0,1,0,0-2.337Z" transform="translate(0.506 2.191)"/><path class="a" d="M26.517,20H17.169a1.169,1.169,0,1,0,0,2.337h9.348a1.169,1.169,0,1,0,0-2.337Z" transform="translate(2.191 2.191)"/></g></svg>