<svg xmlns="http://www.w3.org/2000/svg" width="29.171" height="26" viewBox="0 0 29.171 26"><defs><style>.a{fill:#fff;}</style></defs><g transform="translate(-4 -961.362)"><path class="a" d="M4.952,961.362a.951.951,0,1,0,0,1.9H8.747c1.574,3.9,3.125,7.806,4.687,11.712L12,978.435a.951.951,0,0,0,.882,1.318H28.732a.951.951,0,1,0,0-1.9H14.305l.822-1.962L30.4,974.669a.978.978,0,0,0,.852-.733l1.9-8.244a1,1,0,0,0-.931-1.159H11.3l-1.03-2.576a.975.975,0,0,0-.882-.594Zm7.114,5.073h5.886v2.854H13.205Zm7.788,0h3.8v2.854h-3.8Zm5.707,0h5.46l-.654,2.854H25.561Zm-11.593,4.756h3.983v2.566l-2.864.228Zm5.886,0h3.8V973.3l-3.8.307Zm5.707,0h4.36l-.377,1.645-3.983.317Zm-9.2,9.829a3.171,3.171,0,1,0,3.171,3.171A3.185,3.185,0,0,0,16.366,981.021Zm8.878,0a3.171,3.171,0,1,0,3.171,3.171A3.185,3.185,0,0,0,25.244,981.021Zm-8.878,1.9a1.268,1.268,0,1,1-1.268,1.268A1.254,1.254,0,0,1,16.366,982.923Zm8.878,0a1.268,1.268,0,1,1-1.268,1.268A1.254,1.254,0,0,1,25.244,982.923Z" transform="translate(0 0)"/></g></svg>