<svg xmlns="http://www.w3.org/2000/svg" xmlns:xlink="http://www.w3.org/1999/xlink" width="575" height="560" viewBox="0 0 575 560"><defs><style>.a{fill:#fff;stroke:#707070;}.b{clip-path:url(#a);}.c{opacity:0.2;}.d{fill:#006;}</style><clipPath id="a"><rect class="a" width="575" height="560" transform="translate(1041 264)"/></clipPath></defs><g class="b" transform="translate(-1041 -264)"><g class="c" transform="translate(1102.059 391.891)"><path class="d" d="M459.66,310.208a72.574,72.574,0,0,0-60.9-71.534V124.232h36.335a11.561,11.561,0,0,0,11.561-11.561v-40.2A67.434,67.434,0,0,0,379.294,5.109H87.437a11.483,11.483,0,0,0-2.448.271c-1.771-.139-3.544-.271-5.351-.271A67.436,67.436,0,0,0,12.28,72.468V488.309A11.561,11.561,0,0,0,23.841,499.87h363.35a11.561,11.561,0,0,0,11.561-11.561V455.749l-11.561-8.72-11.561,8.72v21H35.4V72.468a44.236,44.236,0,1,1,88.473,0v40.2a11.561,11.561,0,0,0,11.561,11.561H375.63V238.674a72.427,72.427,0,0,0-31.043,130.1v76.842a11.559,11.559,0,0,0,18.521,9.229l24.084-18.168,24.084,18.168a11.558,11.558,0,0,0,18.521-9.229V368.776A72.393,72.393,0,0,0,459.66,310.208ZM423.53,72.468v28.642H147V72.468a67,67,0,0,0-16.688-44.236H379.29A44.287,44.287,0,0,1,423.53,72.468ZM406.677,422.417l-12.522-9.444a11.56,11.56,0,0,0-13.923,0l-12.522,9.444V380a72.1,72.1,0,0,0,38.964,0v42.419Zm-19.482-62.86a49.345,49.345,0,1,1,49.343-49.346A49.4,49.4,0,0,1,387.195,359.557Z"/><path class="d" d="M193.766,190.893a22.917,22.917,0,0,0,21.758,5.721c8.5-2.2,16.116-7.224,20.374-13.444a8.257,8.257,0,0,0-13.626-9.332c-2.005,2.933-6.279,5.592-10.884,6.788a6.4,6.4,0,0,1-6.177-1.645,7.859,7.859,0,0,1-2.19-7.4c2.887-13.325-4.489-18.957-7.8-20.757-12.067-6.587-34.049,1.321-51.127,18.4-9.219,9.216-16.087,11.072-18.458,10.028-1.883-.809-4.975-5.648-4.611-18.874,0-37.693-13.292-46.585-24.444-47.4-25.93-1.86-57.119,42.889-61.268,70.972a8.258,8.258,0,1,0,16.338,2.415c3.709-25.1,31.08-57.885,43.718-56.911,4.215.311,9.14,8.595,9.143,30.7-.634,22.861,7.584,31.258,14.59,34.274,10.435,4.5,23.459-.31,36.672-13.523,13.863-13.863,28.255-16.988,31.327-15.687a8.178,8.178,0,0,1-.228,2.87A24.263,24.263,0,0,0,193.766,190.893Z" transform="translate(52.855 248.311)"/><path class="d" d="M37.872,68.37H291.117a8.258,8.258,0,0,0,0-16.516H37.872a8.258,8.258,0,1,0,0,16.516Z" transform="translate(39.923 107.662)"/><path class="d" d="M299.375,74.247a8.257,8.257,0,0,0-8.258-8.258H37.872a8.258,8.258,0,1,0,0,16.516H291.117A8.257,8.257,0,0,0,299.375,74.247Z" transform="translate(39.923 140.218)"/><path class="d" d="M259.737,88.382a8.257,8.257,0,0,0-8.258-8.258H37.872a8.258,8.258,0,1,0,0,16.516H251.479A8.257,8.257,0,0,0,259.737,88.382Z" transform="translate(39.923 172.773)"/><path class="d" d="M233.312,102.518a8.257,8.257,0,0,0-8.258-8.258H37.872a8.258,8.258,0,1,0,0,16.516H225.054A8.259,8.259,0,0,0,233.312,102.518Z" transform="translate(39.923 205.331)"/></g></g></svg>